<?xml version="1.0" standalone="no"?>
<!DOCTYPE svg PUBLIC "-//W3C//DTD SVG 1.1//EN" "http://www.w3.org/Graphics/SVG/1.1/DTD/svg11.dtd" >
<svg xmlns="http://www.w3.org/2000/svg">
<metadata>
Created by FontForge 20120731 at Wed Jun 21 17:55:13 2017
 By admin
</metadata>
<defs>
<font id="iconfont" horiz-adv-x="1024" >
  <font-face 
    font-family="iconfont"
    font-weight="500"
    font-stretch="normal"
    units-per-em="1024"
    panose-1="2 0 6 3 0 0 0 0 0 0"
    ascent="896"
    descent="-128"
    x-height="792"
    bbox="0 -224 1063.29 896"
    underline-thickness="0"
    underline-position="0"
    unicode-range="U+0078-E8CD"
  />
<missing-glyph 
 />
    <glyph glyph-name=".notdef" 
 />
    <glyph glyph-name=".notdef" 
 />
    <glyph glyph-name=".null" horiz-adv-x="0" 
 />
    <glyph glyph-name="nonmarkingreturn" horiz-adv-x="341" 
 />
    <glyph glyph-name="x" unicode="x" horiz-adv-x="1001" 
d="M281 543q-27 -1 -53 -1h-83q-18 0 -36.5 -6t-32.5 -18.5t-23 -32t-9 -45.5v-76h912v41q0 16 -0.5 30t-0.5 18q0 13 -5 29t-17 29.5t-31.5 22.5t-49.5 9h-133v-97h-438v97zM955 310v-52q0 -23 0.5 -52t0.5 -58t-10.5 -47.5t-26 -30t-33 -16t-31.5 -4.5q-14 -1 -29.5 -0.5
t-29.5 0.5h-32l-45 128h-439l-44 -128h-29h-34q-20 0 -45 1q-25 0 -41 9.5t-25.5 23t-13.5 29.5t-4 30v167h911zM163 247q-12 0 -21 -8.5t-9 -21.5t9 -21.5t21 -8.5q13 0 22 8.5t9 21.5t-9 21.5t-22 8.5zM316 123q-8 -26 -14 -48q-5 -19 -10.5 -37t-7.5 -25t-3 -15t1 -14.5
t9.5 -10.5t21.5 -4h37h67h81h80h64h36q23 0 34 12t2 38q-5 13 -9.5 30.5t-9.5 34.5q-5 19 -11 39h-368zM336 498v228q0 11 2.5 23t10 21.5t20.5 15.5t34 6h188q31 0 51.5 -14.5t20.5 -52.5v-227h-327z" />
    <glyph glyph-name="shouji" unicode="&#xe639;" horiz-adv-x="1064" 
d="M-49 -72zM1041 -72zM149 -34zM494 -48q-16 16 -16 39t16 38q17 17 38.5 16.5t38.5 -16.5q16 -16 16 -38q-1 -23 -16.5 -38.5t-38 -16t-38.5 15.5zM290 644q0 11 7 18t17 7h436q11 0 17.5 -7t6.5 -18v-484q0 -10 -6.5 -17t-17.5 -7h-436q-10 0 -17 7t-7 17v484zM207 -124
q0 -9 7.5 -16.5t17.5 -7.5h601q11 0 18 7t7 17v847q0 9 -7.5 16t-17.5 7h-601q-10 0 -17.5 -6.5t-7.5 -16.5v-847zM916 -34z" />
    <glyph glyph-name="tianmaochaoshigouwuche" unicode="&#xe600;" 
d="M293.5 146q-22.5 0 -38.5 -16.5t-16 -39t16 -38.5t38.5 -16t38.5 16t16 38.5t-16 39t-38.5 16.5zM629 171q-31 0 -53 -22t-22 -53t22 -53.5t53 -22.5t53.5 22.5t22.5 53.5t-22.5 53t-53.5 22zM964 688v14q0 16 -12 27t-29 11h-161h-6q-27 -2 -35 -26l-46 -132h-576
q-16 0 -27.5 -11t-11.5 -27v-12q0 -16 11.5 -27.5t27.5 -11.5h544l-19 -54v0h-484q-16 0 -27.5 -11.5t-11.5 -27.5v-12q0 -16 11.5 -27t27.5 -11h453l-20 -56h-366q-17 0 -28.5 -11t-11.5 -27v-12q0 -16 11.5 -27.5t28.5 -11.5h396h3q13 -1 24.5 6.5t15.5 20.5l147 418h130
q17 0 29 11t12 27v0z" />
    <glyph glyph-name="jiajian01" unicode="&#xe625;" 
d="M892 265h-738q-18 0 -30.5 12.5t-12.5 30.5t12.5 30.5t30.5 12.5h738q18 0 30.5 -12.5t12.5 -30.5t-12.5 -30.5t-30.5 -12.5z" />
    <glyph glyph-name="fenlei" unicode="&#xe60d;" 
d="M196 586q0 -9 -6.5 -16t-16.5 -7h-86q-9 0 -16 7t-7 16v86q0 10 7 16.5t16 6.5h86q10 0 16.5 -6.5t6.5 -16.5v-86zM959 586q0 -9 -6.5 -16t-16.5 -7h-625q-9 0 -16 7t-7 16v86q0 10 7 16.5t16 6.5h625q10 0 16.5 -6.5t6.5 -16.5v-86zM196 279q0 -9 -6.5 -16t-16.5 -7h-86
q-9 0 -16 7t-7 16v86q0 10 7 16.5t16 6.5h86q10 0 16.5 -6.5t6.5 -16.5v-86zM959 279q0 -9 -6.5 -16t-16.5 -7h-625q-9 0 -16 7t-7 16v86q0 10 7 16.5t16 6.5h625q10 0 16.5 -6.5t6.5 -16.5v-86zM196 -28q0 -9 -6.5 -16t-16.5 -7h-86q-9 0 -16 7t-7 16v86q0 10 7 16.5
t16 6.5h86q10 0 16.5 -6.5t6.5 -16.5v-86zM959 -28q0 -9 -6.5 -16t-16.5 -7h-625q-9 0 -16 7t-7 16v86q0 10 7 16.5t16 6.5h625q10 0 16.5 -6.5t6.5 -16.5v-86z" />
    <glyph glyph-name="gerenzhongxin" unicode="&#xe607;" 
d="M932 -103q0 43 -42 114t-100.5 133t-103.5 81q46 40 72 95t26 117q0 117 -84 199.5t-203 82.5t-203 -82.5t-84 -199.5q0 -62 26 -117t72 -95q-44 -19 -103 -81t-101 -133t-42 -114h870zM370 135l127 -125l146 143zM497 -6v-72v72z" />
    <glyph glyph-name="gouxuan" unicode="&#xe6b1;" 
d="M512 745q-91 0 -173.5 -35t-142 -94.5t-94.5 -142t-35 -173.5t35 -173.5t94.5 -142t142 -94.5t173.5 -35t173.5 35t142 94.5t94.5 142t35 173.5t-35 173.5t-94.5 142t-142 94.5t-173.5 35zM768 430l-310 -310q-10 -10 -30 -10h-2h-1v0h-3q-20 0 -30 10l-136 136
q-10 10 -10 25t10 25t24.5 10t25.5 -10l113 -114q3 -2 6.5 -2t5.5 2l287 288q11 10 25.5 10t24.5 -10.5t10 -25t-10 -24.5z" />
    <glyph glyph-name="daipingjia" unicode="&#xe620;" 
d="M601 752h-5v-181q0 -26 18 -44t43 -18h187zM651 483q-33 0 -56 23t-23 55v191h-400q-18 0 -30.5 -13t-12.5 -31v-805q0 -18 12.5 -31t30.5 -13h370l308 293v331h-199zM592 232h-325q-9 0 -16 7t-7 16.5t7 16.5t16 7h325q10 0 17 -7t7 -16.5t-7 -16.5t-17 -7zM720 352
h-453q-9 0 -16 6.5t-7 16.5t7 17t16 7h453q10 0 17 -7t7 -17t-7 -16.5t-17 -6.5zM922 110l-19 19q-11 11 -27.5 11t-26.5 -11l-16 -18l71 -71l18 14q11 11 11 28t-11 28zM647 -71l-2 -1l-22 -78q0 -8 5.5 -13.5t13.5 -5.5l80 22zM649 -135l11 40h1l39 -39l-41 -11
q-10 0 -10 10zM819 94l-6 -7l-167 -158v-5v-1v0l70 -70h1h1h4l158 167l7 6z" />
    <glyph glyph-name="quxiao" unicode="&#xe654;" 
d="M512 356l-446 445l-55 -55l445 -446l-445 -446l55 -55l446 445l446 -445l55 55l-445 446l445 446l-55 55z" />
    <glyph glyph-name="icon" unicode="&#xe601;" 
d="M279 334l512 -511l-46 -47l-512 512zM791 753l-512 -512l-46 47l512 512z" />
    <glyph glyph-name="mp-search" unicode="&#xe656;" 
d="M186 392h-53q0 117 83 200.5t201 83.5v-53q-96 0 -163.5 -67.5t-67.5 -163.5zM982 -172l-285 284q54 56 84 128.5t30 152.5q0 110 -54 203.5t-147.5 147.5t-203 54t-203 -54t-148 -147.5t-54.5 -203.5t54.5 -203t148 -147.5t202.5 -54.5q142 0 254 90l285 -286
q8 -8 19 -8.5t18.5 7t7.5 18.5t-8 19zM53 393q0 96 47 177.5t128.5 129t177.5 47.5t177.5 -47.5t129 -129t47.5 -177.5t-47.5 -177.5t-129 -128.5t-177.5 -47t-177.5 47t-128.5 128.5t-47 177.5z" />
    <glyph glyph-name="chongzhi" unicode="&#xe67c;" 
d="M62 497v111q0 23 16.5 39t39.5 16h778q23 0 39.5 -16t16.5 -39v-111h-890v0zM62 441v-444q0 -23 16.5 -39.5t39.5 -16.5h632q-27 20 -43 50.5t-16 65.5q0 59 42 101t101 42q36 0 67 -17t51 -45v303h-890zM368 52h-222q-12 0 -20 8t-8 19.5t8 20t20 8.5h222q12 0 20 -8.5
t8 -20t-8 -19.5t-20 -8zM424 163h-278q-12 0 -20 8.5t-8 20t8 19.5t20 8h278q11 0 19 -8t8 -19.5t-8 -20t-19 -8.5zM590 163h-55q-12 0 -20 8.5t-8 20t8 19.5t20 8h55q12 0 20 -8t8 -19.5t-8 -20t-20 -8.5zM836 -67q-51 0 -86.5 36t-35.5 86.5t35.5 86t86 35.5t86.5 -35.5
t36 -86t-36 -86.5t-86 -36v0zM871 54v-12h-28v-15h28v-11h-28v-23h-14v23h-28v11h28v15h-28v12h24l-30 51h16q21 -38 25 -48h1q1 4 8 16l17 32h15l-30 -51h24v0zM836 155q-42 0 -71 -29t-29 -70.5t29 -71t70.5 -29.5t71 29.5t29.5 71t-29.5 70.5t-70.5 29v0z" />
    <glyph glyph-name="shouyesaoerweima01" unicode="&#xe6fd;" 
d="M687 727v-55h235v-235h56v290h-291zM922 -71h-235v-56h291v290h-56v-234zM128 163h-56v-290h291v55h-235v235zM128 672h235v55h-291v-290h56v235zM218 332h600v-71h-600v71z" />
    <glyph glyph-name="xialajiantou" unicode="&#xe62a;" 
d="M0 497h1024l-512 -448z" />
    <glyph glyph-name="shouhuodizhi" unicode="&#xe60a;" 
d="M512 864q-93 0 -172.5 -46.5t-126 -126t-46.5 -173.5q0 -65 33.5 -151.5t75 -156.5t95.5 -145t78 -103.5t40 -46.5q9 -10 22 -11q14 0 23 10l40 47.5t78.5 103.5t96 145t75 156.5t33.5 152.5q-1 93 -47 172.5t-125.5 126t-172.5 46.5zM512 399q-50 0 -85 35t-35 85t35 85
t85 35t85 -35t35 -85t-35 -85t-85 -35z" />
    <glyph glyph-name="share-r" unicode="&#xe659;" 
d="M819 844h-614q-64 0 -108.5 -44.5t-44.5 -108.5v-614q0 -64 44.5 -108.5t108.5 -44.5h614q64 0 108.5 44.5t44.5 108.5v614q0 64 -44.5 108.5t-108.5 44.5zM671 683q6 6 14.5 6t15.5 -6l120 -121h1q6 -6 6 -15t-6 -15v0l-121 -121q-7 -7 -15.5 -7t-14.5 6.5t-6 15t6 15.5
l87 86q-260 -4 -374 -122q-21 -22 -36 -47.5t-22 -44.5t-10.5 -38.5t-3.5 -26.5v-10v-1v0v-5v0q-4 -16 -22 -16q-16 0 -21 14h-1v5v14.5t4 31.5t11.5 45.5t25.5 52.5t42 56q126 131 402 136l-82 82q-6 6 -6 15t6 15zM832 169q0 -38 -26 -64t-64 -26h-460q-38 0 -64 26
t-26 64v415q0 37 26 63.5t64 26.5h188v0v0q9 0 14.5 -6.5t5.5 -15.5q0 -17 -15 -21v-1h-5h-188q-20 0 -33.5 -13.5t-13.5 -32.5v-415q0 -20 13.5 -33.5t33.5 -13.5h460q20 0 33.5 13.5t13.5 33.5v178v0v6h1q4 15 20.5 15t20.5 -15h1v-5v-179z" />
    <glyph glyph-name="iconfontqianjin2" unicode="&#xe61c;" 
d="M761 364l1 1t1 2q7 13 4.5 28.5t-14.5 26.5l-353 334q-15 14 -34.5 13.5t-33.5 -15t-13 -34.5t15 -34l317 -299l-316 -305q-14 -13 -14.5 -33t13.5 -35q14 -14 35 -14q19 0 33 13l350 338l0.5 1t1 1t1 0.5l0.5 0.5q1 2 6 10z" />
    <glyph glyph-name="15" unicode="&#xe63b;" horiz-adv-x="1076" 
d="M1053 580l-61 60q-12 12 -31.5 10.5t-34.5 -16.5l-452 -453q-15 -15 -17 -34.5t11 -31.5l60 -60q12 -13 31.5 -11t34.5 17l452 452q15 15 17 34.5t-10 32.5zM573 -1l2 -2l-188 -99h381q21 0 36 15t15 36v291l-233 -232q-1 -1 -13 -9v0zM408 140q7 18 17 28l394 392v285
q0 21 -15 36t-36 15h-717q-21 0 -36 -15t-15 -36v-896q0 -21 15 -36t36 -15h253l102 245zM128 819h538q21 0 36 -9t15 -22t-15 -22.5t-36 -9.5h-538q-21 0 -36 9.5t-15 22.5t15 22t36 9zM128 651h538q21 0 36 -10t15 -23.5t-15 -23.5t-36 -10h-538q-21 0 -36 10t-15 23.5
t15 23.5t36 10zM128 410q-21 0 -36 10t-15 24t15 24t36 10h333q21 0 36 -10t15 -24t-15 -24t-36 -10h-333zM417 111l-96 -223l215 110z" />
    <glyph glyph-name="yijianfankui" unicode="&#xe615;" 
d="M21 704q0 18 12.5 30.5t30.5 12.5h883q18 0 30.5 -12.5t12.5 -30.5v-661q0 -18 -12.5 -30.5t-30.5 -12.5h-883q-18 0 -30.5 12.5t-12.5 30.5v661zM116 615l329 -186q25 -15 59.5 -15t60.5 15l336 188q9 6 12 16.5t-2.5 20t-16 12.5t-20.5 -2l-335 -189q-14 -7 -34 -7
t-34 7l-328 186q-10 6 -21 3t-16.5 -12.5t-2.5 -20.5t13 -16z" />
    <glyph glyph-name="jia" unicode="&#xe632;" 
d="M410 486h-308q-42 0 -72 -30t-30 -72.5t30 -72t72 -29.5h308v-324q0 -36 30 -61t72 -25t72 25t30 61v324h308q42 0 72 30t30 72.5t-30 72t-72 29.5h-308v324q0 36 -30 61t-72 25t-72 -25t-30 -61v-324v0z" />
    <glyph glyph-name="dian" unicode="&#xe6fe;" 
d="M747 356q-14 -35 -45 -56.5t-69.5 -21.5t-69.5 21.5t-45 56.5q-14 -35 -45.5 -56.5t-70.5 -21.5q-38 0 -69 21.5t-45 56.5q-14 -35 -45.5 -56.5t-70.5 -21.5q-18 0 -36 5v-257q0 -18 16.5 -36t33.5 -18h662q18 0 34 18t16 36v257q-17 -5 -35 -5q-39 0 -70.5 21.5
t-45.5 56.5zM896 686h-760l-79 -209q0 -47 33.5 -80.5t80.5 -33.5q48 0 82 33t34 81q0 -47 33.5 -80.5t81.5 -33.5q47 0 81 33t34 81q0 -47 34 -80.5t81 -33.5t80.5 33t33.5 81q0 -47 34 -80.5t82 -33.5t82 33t34 81zM188 721h658q17 0 28.5 11.5t11.5 28.5t-11.5 28.5
t-28.5 11.5h-658q-16 0 -27.5 -11.5t-11.5 -28.5t11.5 -28.5t27.5 -11.5z" />
    <glyph glyph-name="dangaoline" unicode="&#xe8cd;" 
d="M859 348q0 66 -46.5 112.5t-112.5 46.5h-5q0 33 -13 65v0q-4 11 -16 11t-16 -11v0q-17 -42 -54 -67.5t-81 -25.5t-81 25.5t-54 67.5v0q-4 11 -16 11t-16 -11v0q-13 -32 -13 -65v0v0q-50 1 -92 -26t-60 -72q-22 -57 -4 -111t66 -85l36 -192q4 -25 23 -40.5t44 -15.5h332
q25 0 44 15.5t23 40.5l35 191q36 21 56.5 57.5t20.5 78.5zM206 348q0 51 36.5 87.5t87.5 36.5q10 0 21 -2v0q9 -2 15.5 4t5.5 15v0q-2 10 -2 18q0 5 1 10q25 -34 63 -53.5t81 -19.5t81 19.5t63 53.5q1 -5 1 -10q0 -8 -1 -18v0q-1 -9 5 -15t15 -4v0q13 2 26 2q38 -2 69 -25
t43 -59q15 -44 -2 -86t-56 -63q-28 -15 -59 -15q-46 0 -81 30l-12 10l-11 -10q-35 -30 -81 -30t-81 30l-11 10l-12 -10q-35 -30 -81 -30q-31 0 -59 15q-30 16 -47.5 45.5t-17.5 63.5zM651 0h-274q-25 0 -44 16t-23 40l-25 137q21 -6 44 -6q51 0 92 30q42 -30 93 -30t92 30
q42 -30 93 -30q22 0 44 6l-25 -137q-5 -24 -24 -40t-43 -16zM520 505q45 0 77 32t32 77t-32 76.5t-77 31.5h-1.5h-0.5q-19 40 -36 58q-5 5 -13 5t-13 -6q-10 -12 1 -24q12 -12 25 -39q-31 -12 -51 -40t-20 -62q0 -45 32 -77t77 -32zM496 683q8 -23 9 -39l36 2q-1 17 -9 40
q26 -4 43.5 -24.5t17.5 -47.5q0 -31 -21.5 -52.5t-52 -21.5t-52 21.5t-21.5 52.5q0 24 14 43t36 26z" />
    <glyph glyph-name="pay" unicode="&#xe61d;" 
d="M521 589q311 0 352 1q31 0 42.5 -12.5t9.5 -40.5q-2 -16 2 -45.5t2.5 -51t-13.5 -33.5t-32.5 -13t-50 2.5t-44.5 2.5h-11h-11h-34t-27.5 1t-19.5 -1t-14.5 -2t-9 -6t-5.5 -9t-2 -15t-1.5 -20t0 -28.5t-0.5 -36.5q0 -26 11.5 -36t37.5 -10q32 1 95.5 0.5t94.5 0.5
q19 1 26.5 -6.5t6.5 -26.5q-2 -38 0 -117q0 -21 -10 -30.5t-31 -9.5h-731q-22 0 -31.5 9.5t-9.5 30.5q0 282 -1 460q0 26 12 34t37 8h361zM448 616q-268 0 -311 -1q-18 -1 -22.5 5t-2.5 22q5 55 59 55h559q38 0 54 -34q22 -47 -29 -47h-307v0zM816 264q-8 0 -25 0.5
t-30.5 0.5t-25.5 -2q-33 -5 -44.5 8t-11.5 48q0 33 11 44.5t43 9.5q66 -4 184 0q21 1 28 -7t7 -29v-4q0 -52 -9 -60.5t-64 -8.5h-63zM763 344q-13 0 -20.5 -7t-7 -20t8.5 -20t21 -5q23 2 24 30q-6 22 -26 22z" />
    <glyph glyph-name="quanqiugou101" unicode="&#xe655;" 
d="M275 791v-16v16zM975 506q-3 11 -8 26v1q-112 -116 -346 -254v0v0q-2 11 -7 21q-7 14 -20 22q174 103 287 201q70 61 94 101q2 5 4 9q11 20 18 40t4 21q-39 16 -124 -5q-87 100 -214.5 138.5t-256.5 3.5q-72 -20 -134.5 -61.5t-105.5 -97t-70.5 -123t-30 -140
t15.5 -147.5q3 -11 8 -26q-63 -65 -67 -106q0 -4 21 -7.5t41 -4.5h11h11h4q4 1 8 1q66 8 178 54l22 -29l5 -15q-81 -34 -144 -50q1 -1 2 -1q66 -76 157 -116.5t190 -40.5q62 0 122 16q91 25 164 83t118 138v0q1 1 2 3q72 132 54 280q-4 33 -13 65zM215 471q5 -16 7.5 -24.5
t2 -21.5t-5.5 -24q-11 -20 -25 -34t-23.5 -19.5t-29.5 -14.5q-13 -6 -20 -10q-15 101 18 196t105 164q29 -84 -26 -140q-10 -10 -11.5 -24t0.5 -23t8 -25zM489 466q3 10 11 23q7 13 10 22.5t2 25t-9 35.5q-10 23 -1 45t22 29q19 11 24 22t5 32q0 17 1 30q1 29 51 59
q138 -27 231 -131q9 -9 8.5 -25.5t-4.5 -29.5t-9 -22l-1 -4q-6 -16 -23 -38t-39 -33q-27 -14 -56 -4q-35 12 -51.5 11.5t-35.5 -15.5q-10 -7 -18 -12q-34 -19 -61 -28.5t-37.5 -8.5t-17.5 3q-5 4 -2 14zM538 231l-22 -12l-7 -105l-2 -7q-19 -10 -26 -14q-3 -1 -5 0t-2 3
l-1 3l-19 88l-51 -27l-2 -29q-1 -5 -3 -6q-14 -8 -18 -10q-3 -1 -5 -0.5t-2 1.5l-1 2l-15 46l-30 39q-4 5 2 8l18 10q2 1 8 -2l24 -14l51 27l-62 66q-6 5 0 9l26 14q2 1 7 -3l91 -53l22 11q2 1 5.5 3t12.5 5.5t16.5 5t16 -0.5t11.5 -9q6 -11 -3.5 -23.5t-22.5 -18.5z
M888 184q-38 -68 -98 -117q-28 18 -64 18q-8 0 -27 -1q-53 -4 -63 6q-7 8 -4 32q2 19 4 27q48 12 110 80q66 72 109 94q2 -40 39 -72q7 -11 4.5 -29.5t-10.5 -37.5z" />
    <glyph glyph-name="yifuxuanzhong" unicode="&#xe619;" 
d="M925 543l-140 -141l29 -38l144 136q-16 22 -33 43zM66 461l162 -107l30 49l-163 107q-18 -29 -29 -49zM895 579q-89 103 -180 156q-20 12 -41 22q-27 -65 -57 -102q-41 -50 -89 -53h-5q-66 0 -131 91q-21 29 -39 64q-27 -13 -53 -30q-67 -43 -127 -112q-27 -31 -52 -66
l165 -108l6 8v-438h449v442q8 -8 14 -15zM745 7h-457v430l-1 -1l-171 112l2 4q25 34 52 65q60 70 127 113q27 18 54 30l4 2l2 -3q18 -35 38 -63q64 -90 128 -90h5q46 2 85 51q30 37 57 101l2 4l4 -1q21 -10 41 -22q92 -54 181 -158l3 -2l-146 -147l-3 3q-3 4 -7 8v-436z
M296 15h441v449l7 -8q6 -6 11 -13l135 136q-87 100 -177 153q-18 11 -37 20q-27 -63 -56 -100q-43 -51 -92 -54h-5v0q-68 0 -134 93q-20 28 -38 61q-25 -13 -49 -29q-66 -43 -126 -111q-26 -29 -49 -62l158 -103l4 4l7 9v-445zM229 348l-3 3l-165 108l2 3q11 21 29 50l2 3
l169 -111l-2 -3q-29 -48 -29 -49zM72 462l155 -102q6 9 25 42l-156 102q-14 -23 -24 -42zM813 358l-33 44l145 147l3 -4q17 -21 33 -43l2 -3zM790 402l24 -32l138 130q-13 19 -28 37zM518 392q11 0 19 -7.5t8 -18.5t-8 -19t-19 -8t-18.5 8t-7.5 19t7.5 18.5t18.5 7.5z
M518 306q11 0 19 -8t8 -19t-8 -18.5t-19 -7.5t-18.5 7.5t-7.5 18.5t7.5 19t18.5 8zM518 221q11 0 19 -7.5t8 -18.5t-8 -19t-19 -8t-18.5 8t-7.5 19t7.5 18.5t18.5 7.5z" />
    <glyph glyph-name="kaochuan" unicode="&#xe67f;" 
d="M921 624q30 -30 29.5 -73t-30.5 -73t-73 -29.5t-73 31t-29.5 73t31 72.5t73 29.5t72.5 -30.5zM601 308l-59 60q-7 7 0 13l120 118q2 3 6 3t7 -3l59 -60l58 -59q3 -3 3 -7t-3 -6l-119 -118q-3 -3 -6.5 -3t-6.5 3zM555 263l28 -29v-81l-58 -57h-82l-28 29l-29 29l1 81
l58 58l81 -1zM531.5 761q36.5 -22 47 -63.5t-11.5 -78t-63.5 -47t-78 11.5t-47 63t11.5 78t63.5 47.5t78 -11.5zM396 535l72 -43q8 -5 4 -13l-87 -144q-2 -5 -7 -5q-3 0 -5 2l-72 43l-72 43q-5 2 -5 8q0 2 1 4l87 145q4 8 12 3zM302 298l20 -78l-41 -70l-79 -20l-35 20
l-35 21l-20 79l42 70l78 20l36 -21zM58 -55q-10 0 -16.5 6.5t-6.5 15.5q0 6 3 11l110 184q6 11 19 11q6 0 12 -3q10 -7 10 -20q0 -6 -3 -11l-109 -184q-7 -10 -19 -10v0zM268 297q-10 0 -16.5 6.5t-6.5 15.5q0 6 3 12l34 55q6 11 19 11q9 0 15.5 -6.5t6.5 -15.5q0 -7 -3 -12
l-33 -55q-7 -11 -19 -11v0zM396 512q-9 0 -15.5 6.5t-6.5 16.5v0q0 6 3 11l29 49q7 11 20 11q9 0 15.5 -6.5t6.5 -15.5q0 -6 -3 -12l-29 -48q-7 -12 -20 -12v0zM531 738q-9 0 -15.5 6.5t-6.5 16.5q0 6 3 11l28 47q6 10 19 10q9 0 15.5 -6.5t6.5 -15.5q0 -6 -3 -11l-28 -47
q-6 -11 -19 -11v0zM478 547q-34 0 -64 18q-44 26 -57 76.5t14 95.5q17 28 46 44.5t62 16.5q34 0 64 -18q44 -27 57 -77t-14 -95q-17 -28 -46 -44.5t-62 -16.5zM479 753q-46 0 -70 -39q-17 -29 -8.5 -61.5t36.5 -49.5q19 -11 41 -11q46 0 70 39q17 29 8.5 61t-36.5 50
q-19 11 -41 11zM378 308q-9 0 -17 5l-144 86q-11 6 -14 19q-1 4 -1 8q0 8 4 16l86 144q10 15 27 15q9 0 17 -4l144 -86q11 -7 14 -19.5t-3 -23.5l-86 -145q-10 -15 -27 -15zM251 430l122 -72l73 121l-122 73zM202 107q-6 0 -12 4l-70 41q-8 5 -10 14l-20 79v5q0 6 3 12
l41 70q5 8 14 10l79 20h5q7 0 12 -3l70 -41q8 -5 10 -14l20 -79q1 -3 1 -5q0 -7 -4 -12l-41 -70q-5 -8 -14 -10l-79 -20q-3 -1 -5 -1v0zM151 186l54 -32l61 15l32 54l-15 61l-54 32l-61 -15l-32 -54zM263 -47q-9 0 -16 6.5t-7 15.5t7 16l152 150q7 6 16 6t15.5 -6.5
t6.5 -15.5t-6 -16l-152 -150q-7 -6 -16 -6v0zM555 240q-9 0 -16 7t-7 16t7 16l47 46q6 6 15.5 6t16 -6.5t6.5 -15.5t-7 -16v0l-46 -46q-7 -7 -16 -7v0zM734 417v0q-10 0 -16.5 6.5t-6.5 16t7 15.5l41 40q6 7 15.5 7t16 -6.5t6.5 -16t-7 -16.5l-41 -40q-6 -6 -15 -6v0z
M921 602v0q-9 0 -15.5 6.5t-6.5 15.5t6 16l39 38q6 6 15.5 6t16 -6.5t6.5 -15.5t-7 -16l-38 -38q-7 -6 -16 -6v0zM848 426q-53 0 -90 38q-36 37 -35.5 89t37.5 88q36 36 88 36t89 -37q36 -37 36 -89t-37 -89q-37 -36 -88 -36zM848 632h-1q-13 0 -29.5 -6.5t-26.5 -16.5
q-24 -23 -24 -56.5t23 -57.5q24 -24 58 -24v0q14 0 30.5 7t25.5 16q24 24 24 57.5t-23 56.5q-24 24 -57 24zM666 224v0q-13 0 -22 9l-118 120q-9 9 -9 22v0q0 13 9 22l120 118q9 9 22 9v0v0q13 0 22 -9l118 -120q10 -9 10 -22h-1q0 -13 -9 -22l-119 -118q-10 -9 -23 -9v0z
M567 375l99 -101l101 99l-99 101zM525 73v0l-82 1q-9 0 -16 7l-57 57q-6 7 -6 16v0v82q0 9 7 15l58 58q6 6 16 6l81 -1q9 0 16 -6l57 -58q7 -7 7 -16v0l-1 -81q0 -10 -7 -16l-58 -57q-6 -7 -15 -7v0zM453 119l63 -1l44 44l1 63l-44 45h-63l-45 -44v-63z" />
    <glyph glyph-name="xingxing_selected" unicode="&#xe621;" 
d="M932 426q27 26 16 62q-12 35 -49 40l-217 32q-13 2 -19 14l-97 197q-17 33 -54 33t-54 -33l-97 -197q-6 -12 -19 -14l-218 -32q-36 -5 -47.5 -40.5t14.5 -61.5l158 -153q10 -9 7 -23l-37 -216q-6 -37 24 -58.5t63 -4.5l194 102q12 6 24 0l194 -102q14 -7 28 -7
q20 0 35 12q30 21 24 58l-37 216q-2 14 7 23zM429 436q-19 -5 -33 -19t-18 -33v0h-1q-4 19 -18 33.5t-33 18.5v0q19 4 33 18t18 34v0h1q4 -20 18 -34t33 -18v0zM698 436q-19 -5 -33 -19t-18 -33h-1v0q-4 19 -18 33.5t-33 18.5v0q19 4 33 18t18 34v0v0q5 -20 19 -34t33 -18v0
z" />
    <glyph glyph-name="xianhua" unicode="&#xe63c;" 
d="M531 -107q0 -9 -5.5 -15t-12.5 -6q-9 0 -19.5 6.5t-10.5 14.5l-2 94q-12 18 -23 31q-5 6 -11 14q-22 21 -37.5 23.5t-41.5 -9.5t-44 -15q-4 -1 -7 -1q-73 -6 -160 76q-3 3 -3 7q0 3 1 5q0 3 3 6q35 44 85 59q92 28 169 -95q18 -9 34 -23v0q15 -13 35 -39l-1 193
q0 18 12 25t24 -0.5t12 -25.5v-136q30 47 53 66v0q15 14 33 24q77 124 169 97q50 -15 85 -60q3 -2 4 -6q1 -2 1 -5q0 -4 -4 -7q-86 -83 -159 -77h-7q-17 4 -37 11.5t-29.5 11.5t-24.5 -0.5t-32 -21.5q-6 -7 -11 -14q-22 -28 -40 -58q0 -1 -0.5 -1t-0.5 -1zM628 896
q-10 -25 -13 -63q-111 -33 -163 -61q-16 16 -33 29q62 52 209 95zM423 762q-23 -14 -66.5 -48.5t-52.5 -46.5q12 75 5 136q-3 25 -10 49q70 -36 124 -90zM256 352q-26 32 -27.5 76.5t16.5 87t44 80.5t54 63q130 114 349 162q-19 -24 -25 -62.5t2 -71.5q6 -28 32.5 -77
t33.5 -73q28 -90 6 -146q-25 -61 -108 -86q-95 -29 -220 -17q-112 10 -157 64z" />
    <glyph glyph-name="che2" unicode="&#xe608;" 
d="M863 265h-127v208h49q6 0 9 -5l63 -109q6 -9 6 -20v-74zM788 125q-36 0 -61 -25.5t-25 -61t25 -61t61 -25.5t61.5 25.5t25.5 61t-25.5 61t-61.5 25.5zM340 125q-36 0 -61 -25.5t-25 -61t25 -61t61 -25.5t61.5 25.5t25.5 61t-25.5 61t-61.5 25.5zM625 300v404
q0 13 -9.5 22.5t-22.5 9.5h-550q-13 0 -22.5 -9.5t-9.5 -22.5v-404q0 -14 9.5 -23t22.5 -9h550q13 0 22.5 9t9.5 23zM816 474q-3 6 -10 6h-53v-224h137v80q0 11 -5 21zM995 376l-143 161q-12 13 -34 23t-40 10h-107v-270q0 -33 -23 -55.5t-55 -22.5h-492v-116
q0 -14 9.5 -23.5t22.5 -9.5h80q11 43 46.5 70.5t80.5 27.5t80.5 -27.5t47.5 -70.5h192q12 43 47.5 70.5t80.5 27.5t80.5 -27.5t47.5 -70.5h65q13 0 22.5 9.5t9.5 23.5v136q1 108 -18 134zM922 256q0 -13 -9.5 -22.5t-22.5 -9.5h-137q-13 0 -22 9.5t-9 22.5v224q0 13 9 22
t22 9h53q25 0 37 -21l69 -117q10 -17 10 -37v-80z" />
    <glyph glyph-name="qiandao" unicode="&#xe709;" 
d="M855 779h-107v36q0 7 -5.5 12t-12.5 5h-8q-7 0 -12.5 -5t-5.5 -12v-35h-379v35q0 17 -16 17h-11q-7 0 -12.5 -5t-5.5 -12v-35h-126q-40 0 -64.5 -26t-24.5 -62v-671q0 -42 23.5 -63.5t65.5 -21.5h719q40 0 65 24.5t25 60.5v670q0 35 -33 61.5t-75 26.5zM738 367
l-260 -282q-10 -11 -24.5 -11t-25.5 11l-146 159q-26 27 -6 48q2 1 4.5 2t10.5 2.5t14 -3.5l148 -160l256 278q23 24 42 5q16 -18 -13 -49zM918 604h-809v87q0 15 15.5 30t29.5 15h126v-45q0 -7 5 -12t13 -5h12q14 0 14 17v45h380v-45q0 -7 6.5 -12t14.5 -5h4q8 0 13 5t5 12
v45h126q15 0 30 -15t15 -30v-87v0z" />
    <glyph glyph-name="gouwuche" unicode="&#xe602;" 
d="M176 62.5q0 -35.5 25 -60.5t60.5 -25t60.5 25t25 60q0 15 -5 32h240q-5 -14 -5 -32q0 -35 25 -60t60.5 -25t60.5 25t25 60q0 25 -12.5 45t-33.5 31l9 81h-1l58 395l66 94h128v51h-154l-78 -112h-663l130 -437h473l-8 -62q-25 0 -45 -14h-310q-21 14 -45 14q-36 0 -61 -25
t-25 -60.5zM617 62q0 19 13 32t31.5 13t31.5 -13t13 -31.5t-13 -31.5t-31 -13q-19 0 -32 13t-13 31zM217 62q0 19 13 32t32 13q15 0 28 -10v-3h4q12 -13 12 -31.5t-13 -31.5t-31.5 -13t-31.5 13t-13 31z" />
    <glyph glyph-name="jidanyijindayue" unicode="&#xe6bd;" 
d="M365 329q-10 0 -17 7t-7 17q0 79 40 149q41 74 103 98q5 2 9 2q17 0 23 -16q3 -9 -1 -18t-13 -13q-46 -18 -79 -76q-34 -60 -34 -126q0 -10 -7 -17t-17 -7zM520 56q-104 0 -177 87q-71 85 -71 204q0 122 70 223q34 49 78 77q48 32 100 32t100 -32q43 -28 78 -77
q69 -101 69 -223q0 -119 -71 -204q-72 -87 -176 -87zM519.5 630q-37.5 0 -73.5 -23t-65 -65q-28 -41 -44.5 -93t-16.5 -102q0 -100 58.5 -171.5t141 -71.5t141 71.5t58.5 171.5q0 50 -16 102t-45 93q-29 42 -64 65q-37 23 -74.5 23zM291 91q-104 0 -177 87q-71 85 -71 204
q0 122 70 223q34 49 78 77q48 32 100 32t100 -32q23 -14 43 -35l9 -9l-11 -7v-0.5v-0.5h-1q-11 -7 -20 -15l-7 -6l-7 7q-16 15 -32 26q-37 23 -74.5 23t-73.5 -23t-65 -65q-28 -41 -44.5 -92.5t-16.5 -102.5q0 -100 58.5 -171t141.5 -71q32 0 63 12l6 3l5 -6q11 -11 21 -20
l11 -10l-14 -7q-44 -21 -92 -21zM733 91q-42 0 -81 16l-16 7l13 11q11 9 22 20l4 5l7 -2q25 -8 51 -8q83 0 141.5 71t58.5 171q0 51 -16.5 102.5t-44.5 93.5q-29 41 -65 64t-73.5 23t-74.5 -23q-12 -8 -25 -20l-7 -5l-6 5q-7 5 -12 8q-6 4 -11 7l-12 6l10 10q18 17 37 30
q48 31 100 31t100 -31q44 -28 78 -78q70 -101 70 -222q0 -120 -71 -205q-73 -87 -177 -87z" />
    <glyph glyph-name="zuoweituihuo" unicode="&#xe645;" 
d="M869 767h-134v69q0 26 -18.5 43t-41.5 17h-326q-22 0 -41 -14t-19 -46v-69h-134q-24 0 -42 -18t-18 -42v-775q0 -25 18 -42.5t42 -17.5h714q24 0 42 17.5t18 42.5v775q0 24 -18 42t-42 18zM344 843h336v-155h-336v155zM733 256q0 -56 -30 -86q-16 -16 -39 -24.5
t-34.5 -10t-18.5 -1.5h-257v53h258q27 0 48.5 19.5t21.5 49.5q0 32 -22.5 49.5t-47.5 20.5h-207l13 -34q7 -19 7 -37q-13 6 -57.5 30.5t-63.5 37.5q-15 10 -15 22q0 17 32 39q12 8 34.5 22t25.5 15l3 2q23 11 34 21q4 3 6 3q0 -9 -6 -26q0 -3 -3 -10.5t-3 -11.5l-5 -20h204
q56 0 88 -32q35 -36 34 -91z" />
    <glyph glyph-name="shouye-shouye" unicode="&#xe604;" 
d="M937 434q-1 21 -14 40q-1 1 -80.5 86.5t-159 170.5l-79.5 85q-33 34 -80 34v1h-0.5h-1h-1h-0.5v-1q-48 0 -81 -34q-316 -339 -318 -342q-14 -19 -14 -40v-6q0 -35 24.5 -59.5t59.5 -24.5h20v-300q0 -37 28.5 -63t69 -26t69.5 26t29 63v300h229v-300q0 -37 28.5 -63
t69.5 -26t69.5 26t28.5 63v300h20q35 0 59.5 24.5t24.5 59.5v0.5v0.5v5z" />
  </font>
</defs>
</svg>
